<svg xmlns="http://www.w3.org/2000/svg" fill="none" viewBox="0 0 36 36"><path fill="#d52b1e" d="M1.99992 5.00033C.89538 5.00038 0 5.89579 0 7.00033V29c0 1.1046.895431 2 2 2h8V5zM36 7c0-1.10457-.8954-2-2-2h-8v26h8c1.1046 0 2-.8954 2-2z"/><path fill="#eee" d="M10 5h16v26H10z"/><path fill="#d52b1e" d="M18.6149 22.1126c1.198.139 2.272.264 3.469.401l-.305-1.002c-.049-.176.021-.368.159-.476l3.479-2.834-.72-.339c-.317-.113-.23-.292-.115-.722l.531-1.936-2.021.427c-.197.03-.328-.095-.358-.215l-.261-.911-1.598 1.794c-.227.288-.687.288-.544-.376l.683-3.634-.917.475c-.257.144-.514.168-.657-.089l-1.265-2.366-1.265 2.366c-.144.257-.401.233-.658.089l-.916-.475.683 3.634c.144.664-.317.664-.544.376l-1.598-1.793-.26.911c-.03.12-.162.245-.359.215l-2.021-.427.531 1.936c.113.43.201.609-.116.722l-.72.339 3.479 2.834c.138.107.208.3.158.476l-.305 1.002 3.47-.401c.106 0 .176.059.175.181l-.214 3.704h.956l-.213-3.704c.002-.123.071-.182.177-.182"/></svg>